HIERARCHY
ROOT Hips
{
    OFFSET   0.000000   0.000000   0.000000
    CHANNELS 6 Xposition Yposition Zposition Zrotation Xrotation Yrotation
    JOINT Chest
    {
        OFFSET   0.000000   8.007230   0.000000
        CHANNELS 3 Zrotation Xrotation Yrotation
        JOINT Chest2
        {
            OFFSET   0.000000  22.077100   0.000000
            CHANNELS 3 Zrotation Xrotation Yrotation
            JOINT Neck
            {
                OFFSET   0.000000  23.254800  -0.000021
                CHANNELS 3 Zrotation Xrotation Yrotation
                JOINT Head
                {
                    OFFSET   0.000000  14.370000   1.956610
                    CHANNELS 3 Zrotation Xrotation Yrotation
                    End Site
                    {
                        OFFSET   0.000000  19.566000   0.000000
                    }
                }
            }
            JOINT LeftCollar
            {
                OFFSET   3.911900  19.017000  -0.467063
                CHANNELS 3 Zrotation Xrotation Yrotation
                JOINT LeftShoulder
                {
                    OFFSET  10.383700   0.000000   0.000000
                    CHANNELS 3 Zrotation Xrotation Yrotation
                    JOINT LeftElbow
                    {
                        OFFSET  26.662100   0.001529   0.000325
                        CHANNELS 3 Zrotation Xrotation Yrotation
                        JOINT LeftWrist
                        {
                            OFFSET  28.869000  -0.000011  -0.000096
                            CHANNELS 3 Zrotation Xrotation Yrotation
                            JOINT LeftFinger0
                            {
                                OFFSET   2.044650  -2.323460   3.252850
                                CHANNELS 3 Zrotation Xrotation Yrotation
                                JOINT LeftFinger01
                                {
                                    OFFSET   3.088130   0.000000   0.000000
                                    CHANNELS 3 Zrotation Xrotation Yrotation
                                    JOINT LeftFinger02
                                    {
                                        OFFSET   2.639460   0.000000   0.000000
                                        CHANNELS 3 Zrotation Xrotation Yrotation
                                        End Site
                                        {
                                            OFFSET   2.582190   0.000000   0.000000
                                        }
                                    }
                                }
                            }
                            JOINT LeftFinger1
                            {
                                OFFSET   8.364480   0.000000   3.252850
                                CHANNELS 3 Zrotation Xrotation Yrotation
                                JOINT LeftFinger11
                                {
                                    OFFSET   4.646930   0.000000   0.000000
                                    CHANNELS 3 Zrotation Xrotation Yrotation
                                    JOINT LeftFinger12
                                    {
                                        OFFSET   2.323460   0.000000   0.000000
                                        CHANNELS 3 Zrotation Xrotation Yrotation
                                        End Site
                                        {
                                            OFFSET   2.273050   0.000000   0.000000
                                        }
                                    }
                                }
                            }
                            JOINT LeftFinger2
                            {
                                OFFSET   8.364480   0.000016   1.078090
                                CHANNELS 3 Zrotation Xrotation Yrotation
                                JOINT LeftFinger21
                                {
                                    OFFSET   5.111620   0.000000   0.000000
                                    CHANNELS 3 Zrotation Xrotation Yrotation
                                    JOINT LeftFinger22
                                    {
                                        OFFSET   2.788160   0.000017   0.000000
                                        CHANNELS 3 Zrotation Xrotation Yrotation
                                        End Site
                                        {
                                            OFFSET   2.727660   0.000000   0.000000
                                        }
                                    }
                                }
                            }
                            JOINT LeftFinger3
                            {
                                OFFSET   7.899780   0.000015  -1.078090
                                CHANNELS 3 Zrotation Xrotation Yrotation
                                JOINT LeftFinger31
                                {
                                    OFFSET   4.646920   0.000000   0.000000
                                    CHANNELS 3 Zrotation Xrotation Yrotation
                                    JOINT LeftFinger32
                                    {
                                        OFFSET   2.323470   0.000000   0.000000
                                        CHANNELS 3 Zrotation Xrotation Yrotation
                                        End Site
                                        {
                                            OFFSET   2.273050   0.000000   0.000000
                                        }
                                    }
                                }
                            }
                            JOINT LeftFinger4
                            {
                                OFFSET   7.435090   0.000000  -3.252850
                                CHANNELS 3 Zrotation Xrotation Yrotation
                                JOINT LeftFinger41
                                {
                                    OFFSET   3.717550   0.000000   0.000000
                                    CHANNELS 3 Zrotation Xrotation Yrotation
                                    JOINT LeftFinger42
                                    {
                                        OFFSET   1.858760   0.000000   0.000000
                                        CHANNELS 3 Zrotation Xrotation Yrotation
                                        End Site
                                        {
                                            OFFSET   1.818440   0.000000   0.000000
                                        }
                                    }
                                }
                            }
                        }
                    }
                }
            }
            JOINT RightCollar
            {
                OFFSET  -3.911900  19.017000  -0.467062
                CHANNELS 3 Zrotation Xrotation Yrotation
                JOINT RightShoulder
                {
                    OFFSET -10.383700   0.000015   0.000000
                    CHANNELS 3 Zrotation Xrotation Yrotation
                    JOINT RightElbow
                    {
                        OFFSET -26.662100   0.001341   0.000385
                        CHANNELS 3 Zrotation Xrotation Yrotation
                        JOINT RightWrist
                        {
                            OFFSET -28.869000   0.000025  -0.000080
                            CHANNELS 3 Zrotation Xrotation Yrotation
                            JOINT RightFinger0
                            {
                                OFFSET  -2.044650  -2.323490   3.252850
                                CHANNELS 3 Zrotation Xrotation Yrotation
                                JOINT RightFinger01
                                {
                                    OFFSET  -3.088130   0.000000   0.000000
                                    CHANNELS 3 Zrotation Xrotation Yrotation
                                    JOINT RightFinger02
                                    {
                                        OFFSET  -2.639460   0.000000   0.000000
                                        CHANNELS 3 Zrotation Xrotation Yrotation
                                        End Site
                                        {
                                            OFFSET  -2.582190   0.000000   0.000000
                                        }
                                    }
                                }
                            }
                            JOINT RightFinger1
                            {
                                OFFSET  -8.364480   0.000000   3.252850
                                CHANNELS 3 Zrotation Xrotation Yrotation
                                JOINT RightFinger11
                                {
                                    OFFSET  -4.646930   0.000000   0.000000
                                    CHANNELS 3 Zrotation Xrotation Yrotation
                                    JOINT RightFinger12
                                    {
                                        OFFSET  -2.323470   0.000000   0.000000
                                        CHANNELS 3 Zrotation Xrotation Yrotation
                                        End Site
                                        {
                                            OFFSET  -2.273050   0.000000   0.000000
                                        }
                                    }
                                }
                            }
                            JOINT RightFinger2
                            {
                                OFFSET  -8.364480   0.000000   1.078090
                                CHANNELS 3 Zrotation Xrotation Yrotation
                                JOINT RightFinger21
                                {
                                    OFFSET  -5.111610   0.000000   0.000000
                                    CHANNELS 3 Zrotation Xrotation Yrotation
                                    JOINT RightFinger22
                                    {
                                        OFFSET  -2.788160   0.000000   0.000000
                                        CHANNELS 3 Zrotation Xrotation Yrotation
                                        End Site
                                        {
                                            OFFSET  -2.727660   0.000000   0.000000
                                        }
                                    }
                                }
                            }
                            JOINT RightFinger3
                            {
                                OFFSET  -7.899780   0.000000  -1.078090
                                CHANNELS 3 Zrotation Xrotation Yrotation
                                JOINT RightFinger31
                                {
                                    OFFSET  -4.646920   0.000000   0.000000
                                    CHANNELS 3 Zrotation Xrotation Yrotation
                                    JOINT RightFinger32
                                    {
                                        OFFSET  -2.323470   0.000000   0.000000
                                        CHANNELS 3 Zrotation Xrotation Yrotation
                                        End Site
                                        {
                                            OFFSET  -2.273050   0.000000   0.000000
                                        }
                                    }
                                }
                            }
                            JOINT RightFinger4
                            {
                                OFFSET  -7.435090   0.000000  -3.252850
                                CHANNELS 3 Zrotation Xrotation Yrotation
                                JOINT RightFinger41
                                {
                                    OFFSET  -3.717550   0.000000   0.000000
                                    CHANNELS 3 Zrotation Xrotation Yrotation
                                    JOINT RightFinger42
                                    {
                                        OFFSET  -1.858770   0.000000   0.000000
                                        CHANNELS 3 Zrotation Xrotation Yrotation
                                        End Site
                                        {
                                            OFFSET  -1.818440   0.000000   0.000000
                                        }
                                    }
                                }
                            }
                        }
                    }
                }
            }
        }
    }
    JOINT LeftHip
    {
        OFFSET   9.783010   0.000000   0.000000
        CHANNELS 3 Zrotation Xrotation Yrotation
        JOINT LeftKnee
        {
            OFFSET   0.000070 -41.789100   0.000028
            CHANNELS 3 Zrotation Xrotation Yrotation
            JOINT LeftAnkle
            {
                OFFSET   0.000087 -41.133200  -0.000100
                CHANNELS 3 Zrotation Xrotation Yrotation
                JOINT LeftToe
                {
                    OFFSET   0.000000  -6.358960  14.674500
                    CHANNELS 3 Zrotation Xrotation Yrotation
                    End Site
                    {
                        OFFSET   0.000000   0.000000   3.913200
                    }
                }
            }
        }
    }
    JOINT RightHip
    {
        OFFSET  -9.783020   0.000000   0.000000
        CHANNELS 3 Zrotation Xrotation Yrotation
        JOINT RightKnee
        {
            OFFSET   0.000044 -41.789100  -0.000870
            CHANNELS 3 Zrotation Xrotation Yrotation
            JOINT RightAnkle
            {
                OFFSET  -0.000090 -41.133200  -0.000245
                CHANNELS 3 Zrotation Xrotation Yrotation
                JOINT RightToe
                {
                    OFFSET   0.000000  -6.358960  14.674500
                    CHANNELS 3 Zrotation Xrotation Yrotation
                    End Site
                    {
                        OFFSET   0.000000   0.000000   3.913200
                    }
                }
            }
        }
    }
}
MOTION
Frames: 4
Frame Time:   0.016667
  0.519712  89.992000   1.207450  -0.882492   1.659540  -0.388038  -0.767768   0.061090   0.216919  -1.535780   0.119259   0.434641   2.725010   1.137260  -0.054568   4.490440   2.301250   5.534360  -1.096740  -1.273360   0.295787 -74.346900  17.348800   4.618160  -3.033020  -8.577590 -12.593200   5.915160   1.236770  10.316300  42.439200  28.441200 -66.042400 -18.052200   0.003185   0.001274  -4.026120   0.016214   0.011518 -18.784400   5.223530 -14.985200 -15.931500   0.004289   0.006214 -11.152100   0.006631   0.004454 -21.332500   3.147260  -8.002350 -21.552800   0.001064  -0.004067 -14.354100   0.005883  -0.001300 -14.182500   1.962400  -7.717750 -14.315000  -0.002340  -0.005104  -9.533740   0.010329  -0.006857 -18.103800   1.672740  -5.102620 -27.267400   0.003082  -0.008505 -18.160100   0.002037   0.000714   9.435090   2.878250   2.142750  70.629400   7.454510  -1.482430   2.889410 -10.901100   5.590240  -3.525390 -16.302400   6.320250 -36.554200  28.592700  59.642300  32.507400   0.004675  -0.002855  11.253700   0.011754   0.001742  17.449300   0.050991   0.162581  14.276900  -0.003089  -0.000135   9.993810  -0.003508  -0.000000  15.714900  -1.212310  -4.306280  15.760500  -0.003402   0.006688  10.496500  -0.010394   0.004872  15.963400  -2.609170  -9.041950  16.169700  -0.007866   0.000328  10.769000   0.002031   0.003370  28.307000  -4.492540  -8.274410  42.948300   0.008675   0.006575  28.603600   0.004953   0.006382  -0.231197  -1.212870   0.688120   0.563094  -0.281150   8.914020  -4.510460  -2.686700   6.716330   0.000000   0.000000   0.000000   2.594990  -2.844280  -5.034190  -1.450030   4.382630  -9.412100  -8.309890  -0.073224  -1.366010  -0.000000   0.000000   0.000000
  0.519591  89.992000   1.214050  -0.882627   1.659540  -0.382714  -0.768155   0.065361   0.216248  -1.536560   0.127813   0.433357   2.729170   1.143550  -0.054629   4.494250   2.308690   5.541080  -1.100180  -1.280800   0.304230 -74.347500  17.360200   4.618590  -3.048130  -8.590820 -12.599500   5.955090   1.249850  10.318400  42.467100  28.443100 -66.022700 -18.086400   0.003195   0.001182  -4.043230   0.016226   0.011532 -18.819900   5.232300 -14.981300 -15.961400   0.004290   0.006221 -11.173000   0.006629   0.004460 -21.388100   3.141780  -7.959360 -21.606800   0.001064  -0.004004 -14.390100   0.005842  -0.001271 -14.245100   1.963040  -7.679950 -14.376900  -0.002341  -0.005057  -9.575000   0.010327  -0.006820 -18.174500   1.662730  -5.045920 -27.371400   0.003092  -0.008469 -18.229400   0.002043   0.000717   9.445470   2.853780   2.159350  70.618800   7.451080  -1.490910   2.883480 -10.886100   5.610930  -3.555620 -16.280800   6.343190 -36.542900  28.599200  59.666800  32.525500   0.004672  -0.002897  11.262800   0.011757   0.001739  17.494500   0.070295   0.224104  14.314200  -0.003086  -0.000139  10.020000  -0.003510  -0.000000  15.763200  -1.211940  -4.296470  15.808700  -0.003396   0.006682  10.528600  -0.010394   0.004869  16.013300  -2.623450  -9.048180  16.220900  -0.007860   0.000298  10.803100   0.002029   0.003358  28.340500  -4.504090  -8.279530  42.999500   0.008668   0.006565  28.637700   0.004942   0.006377  -0.231110  -1.138680   0.688228   0.562560  -0.338262   8.914410  -4.510650  -2.693860   6.714700  -0.000000   0.000000   0.000000   2.595010  -2.834580  -5.033710  -1.447790   4.374540  -9.424640  -8.309660  -0.072993  -1.358060  -0.000000   0.000000   0.000000
  0.519407  89.992000   1.225760  -0.882859   1.659540  -0.373125  -0.768557   0.074000   0.214568  -1.537400   0.145118   0.430114   2.735210   1.149840  -0.054690   4.499910   2.316090   5.558800  -1.108930  -1.297090   0.323218 -74.348900  17.380200   4.619250  -3.072720  -8.611260 -12.613900   6.029760   1.271930  10.328400  42.492400  28.450000 -65.997700 -18.143100   0.003212   0.001090  -4.071560   0.016248   0.011570 -18.881800   5.249950 -14.977600 -16.013800   0.004296   0.006235 -11.209700   0.006621   0.004473 -21.477400   3.136290  -7.916360 -21.694500   0.001062  -0.003873 -14.448600   0.005751  -0.001214 -14.345100   1.966440  -7.642170 -14.476500  -0.002343  -0.004956  -9.641340   0.010319  -0.006739 -18.281800   1.652720  -4.989210 -27.530700   0.003117  -0.008390 -18.335500   0.002059   0.000725   9.456050   2.810150   2.187060  70.596600   7.447650  -1.499400   2.876450 -10.837500   5.643120  -3.619440 -16.230500   6.365200 -36.523800  28.620800  59.714700  32.564600   0.004667  -0.002940  11.282300   0.011765   0.001736  17.571800   0.117306   0.372112  14.378000  -0.003084  -0.000147  10.064600  -0.003511  -0.000000  15.852500  -1.209280  -4.248770  15.897700  -0.003384   0.006668  10.587900  -0.010395   0.004858  16.106100  -2.637730  -9.054420  16.315300  -0.007847   0.000241  10.866000   0.002022   0.003330  28.398500  -4.515640  -8.284650  43.089000   0.008652   0.006542  28.697300   0.004912   0.006368  -0.231023  -1.064490   0.688401   0.562028  -0.395373   8.914800  -4.511930  -2.710120   6.709630  -0.000000   0.000000  -0.000000   2.593490  -2.816330  -5.033200  -1.441670   4.361340  -9.445680  -8.309420  -0.072761  -1.344560   0.000000   0.000000   0.000000
  0.519278  89.992000   1.236650  -0.883082   1.655070  -0.364032  -0.767705   0.084027   0.213035  -1.535730   0.165191   0.427177   2.738550   1.149600  -0.054616   4.503370   2.314910   5.583490  -1.122230  -1.319890   0.345247 -74.351600  17.396500   4.619250  -3.092210  -8.627080 -12.634000   6.109580   1.294920  10.350700  42.514700  28.477100 -66.006800 -18.187200   0.003222   0.001092  -4.093600   0.016269   0.011635 -18.935900   5.271140 -14.989700 -16.060800   0.004310   0.006255 -11.242600   0.006604   0.004486 -21.539800   3.145910  -7.922290 -21.757700   0.001055  -0.003692 -14.490700   0.005619  -0.001140 -14.415200   1.976180  -7.646020 -14.547300  -0.002347  -0.004814  -9.688500   0.010305  -0.006627 -18.344400   1.660620  -5.000060 -27.625400   0.003159  -0.008277 -18.398600   0.002083   0.000737   9.456000   2.768180   2.209080  70.568000   7.494870  -1.491550   2.877340 -10.746300   5.669010  -3.688440 -16.170400   6.361920 -36.509000  28.665000  59.772700  32.615800   0.004664  -0.002929  11.307900   0.011776   0.001736  17.635900   0.187819   0.591885  14.430900  -0.003088  -0.000157  10.101600  -0.003510  -0.000000  15.940200  -1.187780  -4.140710  15.983700  -0.003374   0.006650  10.645100  -0.010400   0.004837  16.197600  -2.633030  -8.998330  16.405200  -0.007828   0.000161  10.925900   0.002008   0.003291  28.453700  -4.495050  -8.233000  43.167200   0.008630   0.006511  28.749400   0.004864   0.006356  -0.232571  -1.075380   0.688536   0.562470  -0.356807   8.914000  -4.515530  -2.734630   6.700150  -0.000000   0.000000   0.000000   2.588080  -2.798310  -5.035040  -1.430830   4.351730  -9.463210  -8.310310  -0.074423  -1.333190   0.000000   0.000000   0.000000
